) (`-.                           (` .-') /`           ) (`-.
       ( OO ).                          `.( OO ),'            ( OO ).
      (_/.  _)-.-'),-----. ,--.     ,--./  .--.  .-'),-----.(_/.  _)-.
         `.'  ( OO'  .-.  '|  |.-') |      |  | ( OO'  .-.  '  `.'  /
             /Y   |  | |  ||  | OO )|  |   |  |,/   |  | |  |      /
             _) |  ||  ||  |`-' ||  |.'.|  |_)_) |  ||  |      |
        .'    _) |  | |  (|  '---.'|         |    |  | |  | .'    _)
       /  .'.    `'  '-'  '|      | |   ,'.   |    `'  '-'  '/  .'.  
      '--'   '--'   `-----' `------' '--'   '--'      `-----''--'   '--'


      ßßßßßßßßßßßßßßßßßßßßßßßßßßßßßßßßßßßßßßßßßßßßßßßßßßßßßßßßßßßßßßßßßßßßßß

                  Û°°°°°°°°°°°°°°°°°°°°°°°°°°°°°°°°°°°Û
                 ÛÛ Monsters Vs Aliens[2009]DvDrip-LW ÛÛ
                  Û°°°°°°°°°°°°°°°°°°°°°°°°°°°°°°°°°°°Û

File Name    : Monsters Vs Aliens[2009]DvDrip-LW
Type         : Movie
Format       : AVI
File Size    : 701 MB
Duration     : 01:34:20
Language     : English
Source       : DvD
Subtitles    : None
Genre        : Animation | Action | Family | Sci-Fi
IMDB Link    : http://www.imdb.com/title/tt0892782/
IMDB Rating  : 6.9/10
IMDB Votes   : 12,967 Votes
     ÜÜÜÜÜÜÜÜÜÜÜÜÜÜÜÜÜÜÜÜÜÜÜÜÜÜÜÜÜÜÜÜÜÜÜÜÜÜÜÜÜÜÜÜÜÜÜÜÜÜÜÜÜÜÜÜÜÜÜÜÜÜÜÜÜÜÜÜÜÜ
 
                        Û°°°°°°°°°°°°°°°°°°°°°°°°Û
                       ÛÛ       Video Info       ÛÛ
                        Û°°°°°°°°°°°°°°°°°°°°°°°°Û

Format                           : MPEG-4 Visual
Format profile                   : Streaming Video@L1
Format settings, BVOP            : Yes
Format settings, QPel            : No
Format settings, GMC             : No warppoints
Format settings, Matrix          : Default (H.263)
Codec ID                         : XVID
Codec ID/Hint                    : XviD
Duration                         : 1h 34mn
Bit rate                         : 865 Kbps
Width                            : 640 pixels
Height                           : 272 pixels
Display aspect ratio             : 2.35
Frame rate                       : 23.976 fps
Resolution                       : 24 bits
Colorimetry                      : 4:2:0
Scan type                        : Progressive
Bits/(Pixel*Frame)               : 0.207
Stream size                      : 584 MiB (83%)
Writing library                  : XviD 1.2.1
     ÜÜÜÜÜÜÜÜÜÜÜÜÜÜÜÜÜÜÜÜÜÜÜÜÜÜÜÜÜÜÜÜÜÜÜÜÜÜÜÜÜÜÜÜÜÜÜÜÜÜÜÜÜÜÜÜÜÜÜÜÜÜÜÜÜÜÜÜÜÜ

                         Û°°°°°°°°°°°°°°°°°°°°°°°°Û
                        ÛÛ      Sound Info        ÛÛ
                         Û°°°°°°°°°°°°°°°°°°°°°°°°Û

Format                           : MPEG Audio
Format version                   : Version 1
Format profile                   : Layer 3
Codec ID                         : 55
Codec ID/Hint                    : MP3
Duration                         : 1h 34mn
Bit rate mode                    : Variable
Bit rate                         : 161 Kbps
Nominal bit rate                 : 160 Kbps
Channel(s)                       : 2 channels
Sampling rate                    : 48.0 KHz
Resolution                       : 16 bits
Video delay                      : 480ms
Stream size                      : 109 MiB (15%)
Alignment                        : Split accross interleaves
Interleave, duration             : 24 ms (0.58 video frame)
Interleave, preload duration     : 1145 ms
Writing library                  : LAME3.90.
Encoding settings                : ABR
    ÜÜÜÜÜÜÜÜÜÜÜÜÜÜÜÜÜÜÜÜÜÜÜÜÜÜÜÜÜÜÜÜÜÜÜÜÜÜÜÜÜÜÜÜÜÜÜÜÜÜÜÜÜÜÜÜÜÜÜÜÜÜÜÜÜÜÜÜÜÜ

                          Û°°°°°°°°°°°°°°°°°°°°°°°°Û
                         ÛÛ          Plot          ÛÛ
                          Û°°°°°°°°°°°°°°°°°°°°°°°°Û

After Susan Murphy (voiced by Reese Witherspoon) is 
struck by a meteor and grows to be 50-feet tall, 
she's captured by the government and shuttled to a 
secret compound where she meets a team of other 
monsters -- soon to be Earth's only defense when an 
alien attacks. Under orders from the president 
(Stephen Colbert), Susan and her cohorts Dr. Cockroach 
(Hugh Laurie), the Missing Link (Will Arnett) and B.O.B. 
(Seth Rogen) set out to save the world.

Starring: Seth Rogen, Reese Witherspoon

Director: Rob Letterman
    ÜÜÜÜÜÜÜÜÜÜÜÜÜÜÜÜÜÜÜÜÜÜÜÜÜÜÜÜÜÜÜÜÜÜÜÜÜÜÜÜÜÜÜÜÜÜÜÜÜÜÜÜÜÜÜÜÜÜÜÜÜÜÜÜÜÜÜÜÜÜ

Video SaMPLe - Delete Spaces

h t tp://w w w .freewebs. c o m/icpclanssite/Video%20Samples/Monsters%20Vs%20Aliens . html
ScreenShots 
http://imgshack.info/images/ixz6290zpn3vgivbm5y4.png 
http://imgshack.info/images/cedgbwbtvmnfxllv29bb.png 
http://imgshack.info/images/40bickegjswobsslxtjj.png 
http://imgshack.info/images/9g4jlewgofz4jb3nu8c1.jpg 
http://bit-byte.forums-free.com/